<svg xmlns="http://www.w3.org/2000/svg" viewBox="0 0 1200 675" role="img" aria-labelledby="title desc"><title id="title">Panasonic NI-FS70C 使用イメージ</title><desc id="desc">アイロン台を出す回数を減らす使い方を示すイラスト</desc><rect width="1200" height="675" fill="#ffffff"/><rect x="50" y="50" width="1100" height="575" rx="42" fill="#f6f8f6"/><text x="90" y="145" font-family="-apple-system,BlinkMacSystemFont,'Noto Sans JP',sans-serif" font-size="58" font-weight="700" fill="#19231f">アイロン台を出す回数を減らす</text><text x="90" y="198" font-family="-apple-system,BlinkMacSystemFont,'Noto Sans JP',sans-serif" font-size="30" fill="#47534e">Panasonic NI-FS70C</text><text x="90" y="340" font-family="-apple-system,BlinkMacSystemFont,'Noto Sans JP',sans-serif" font-size="46" font-weight="700" fill="#2d3834">朝の1着を、</text><text x="90" y="400" font-family="-apple-system,BlinkMacSystemFont,'Noto Sans JP',sans-serif" font-size="46" font-weight="700" fill="#2d3834">すぐ整えたい人へ</text><text x="90" y="495" font-family="-apple-system,BlinkMacSystemFont,'Noto Sans JP',sans-serif" font-size="29" fill="#46534e">約15秒で立ち上がり</text><text x="90" y="540" font-family="-apple-system,BlinkMacSystemFont,'Noto Sans JP',sans-serif" font-size="29" fill="#46534e">ハンガースチーム＋プレスの2WAY</text><path d="M850 165v-48c0-35 67-39 67-3" fill="none" stroke="#555" stroke-width="10" stroke-linecap="round"/><path d="M745 218L650 290l70 82 50-54v245h285V318l50 54 70-82-95-72-62-34H807z" fill="#e8eef0" stroke="#9da9ad" stroke-width="5"/><path d="M807 184l43 62 43-62" fill="none" stroke="#9da9ad" stroke-width="5"/><rect x="600" y="390" width="118" height="168" rx="34" fill="#373d3f"/><rect x="625" y="335" width="68" height="82" rx="20" fill="#535b5e"/><path d="M595 350c-38-28-40-64-6-91M565 372c-46-40-49-89-9-127M536 393c-54-51-58-111-11-159" fill="none" stroke="#7aa092" stroke-width="7" stroke-linecap="round"/></svg>